ffmpeg version N-122740-g0a629df0a8-20260213 Copyright (c) 2000-2026 the FFmpeg developers
  built with gcc 15.2.0 (crosstool-NG 1.28.0.1_403899e)
  configuration: --prefix=/ffbuild/prefix --pkg-config-flags=--static --pkg-config=pkg-config --cross-prefix=x86_64-w64-mingw32- --arch=x86_64 --target-os=mingw32 --enable-gpl --enable-version3 --disable-debug --disable-w32threads --enable-pthreads --enable-iconv --enable-zlib --enable-libxml2 --enable-libvmaf --enable-fontconfig --enable-libharfbuzz --enable-libfreetype --enable-libfribidi --enable-vulkan --enable-libshaderc --enable-libvorbis --disable-libxcb --disable-xlib --disable-libpulse --enable-opencl --enable-gmp --enable-lzma --enable-liblcevc-dec --enable-amf --enable-libaom --enable-libaribb24 --enable-avisynth --enable-chromaprint --enable-libdav1d --enable-libdavs2 --enable-libdvdread --enable-libdvdnav --disable-libfdk-aac --enable-ffnvcodec --enable-cuda-llvm --enable-frei0r --enable-libgme --enable-libkvazaar --enable-libaribcaption --enable-libass --enable-libbluray --enable-libjxl --enable-libmp3lame --enable-libopus --enable-libplacebo --enable-librist --enable-libssh --enable-libtheora --enable-libvpx --enable-libwebp --enable-libzmq --enable-lv2 --enable-libvpl --enable-openal --enable-liboapv --enable-libopencore-amrnb --enable-libopencore-amrwb --enable-libopenh264 --enable-libopenjpeg --enable-libopenmpt --enable-librav1e --enable-librubberband --enable-schannel --enable-sdl2 --enable-libsnappy --enable-libsoxr --enable-libsrt --enable-libsvtav1 --enable-libtwolame --enable-libuavs3d --disable-libdrm --enable-vaapi --enable-libvidstab --enable-libvvenc --enable-whisper --enable-libx264 --enable-libx265 --enable-libxavs2 --enable-libxvid --enable-libzimg --enable-libzvbi --extra-cflags=-DLIBTWOLAME_STATIC --extra-cxxflags= --extra-libs=-lgomp --extra-ldflags=-pthread --extra-ldexeflags= --cc=x86_64-w64-mingw32-gcc --cxx=x86_64-w64-mingw32-g++ --ar=x86_64-w64-mingw32-gcc-ar --ranlib=x86_64-w64-mingw32-gcc-ranlib --nm=x86_64-w64-mingw32-gcc-nm --extra-version=20260213
  libavutil      60. 25.100 / 60. 25.100
  libavcodec     62. 23.103 / 62. 23.103
  libavformat    62.  9.101 / 62.  9.101
  libavdevice    62.  2.100 / 62.  2.100
  libavfilter    11. 12.100 / 11. 12.100
  libswscale      9.  3.100 /  9.  3.100
  libswresample   6.  2.100 /  6.  2.100
Input #0, rawvideo, from 'fd:':
  Duration: N/A, start: 0.000000, bitrate: 2985984 kb/s
  Stream #0:0: Video: rawvideo (RGB[24] / 0x18424752), rgb24, 1920x1080, 2985984 kb/s, 60 tbr, 60 tbn
Stream mapping:
  Stream #0:0 -> #0:0 (rawvideo (native) -> h264 (libx264))
[libx264 @ 0000029449427380] using cpu capabilities: MMX2 SSE2Fast SSSE3 SSE4.2 AVX FMA3 BMI2 AVX2
[libx264 @ 0000029449427380] profile High, level 4.2, 4:2:0, 8-bit
[libx264 @ 0000029449427380] 264 - core 165 - H.264/MPEG-4 AVC codec - Copyleft 2003-2025 - http://www.videolan.org/x264.html - options: cabac=1 ref=2 deblock=1:0:0 analyse=0x3:0x113 me=hex subme=6 psy=1 psy_rd=1.00:0.00 mixed_ref=1 me_range=16 chroma_me=1 trellis=1 8x8dct=1 cqm=0 deadzone=21,11 fast_pskip=1 chroma_qp_offset=-2 threads=18 lookahead_threads=3 sliced_threads=0 nr=0 decimate=1 interlaced=0 bluray_compat=0 constrained_intra=0 bframes=3 b_pyramid=2 b_adapt=1 b_bias=0 direct=1 weightb=1 open_gop=0 weightp=1 keyint=250 keyint_min=25 scenecut=40 intra_refresh=0 rc_lookahead=30 rc=crf mbtree=1 crf=18.0 qcomp=0.60 qpmin=0 qpmax=69 qpstep=4 ip_ratio=1.40 aq=1:1.00
Output #0, mp4, to 'C:\Projekte\YouTube\VSCode\RisingSeaLevel\sea_level_rise_argentina.mp4':
  Metadata:
    encoder         : Lavf62.9.101
  Stream #0:0: Video: h264 (avc1 / 0x31637661), yuv420p(tv, progressive), 1920x1080, q=2-31, 60 fps, 15360 tbn
    Metadata:
      encoder         : Lavc62.23.103 libx264
    Side data:
      CPB properties: bitrate max/min/avg: 0/0/0 buffer size: 0 vbv_delay: N/A
frame=    0 fps=0.0 q=0.0 size=       0KiB time=N/A bitrate=N/A speed=N/A elapsed=0:00:00.51    [mp4 @ 00000294494255c0] Starting second pass: moving the moov atom to the beginning of the file
[out#0/mp4 @ 00000294493ccb00] video:66KiB audio:0KiB subtitle:0KiB other streams:0KiB global headers:0KiB muxing overhead: 1.504650%
frame=   15 fps=0.0 q=-1.0 Lsize=      67KiB time=00:00:00.21 bitrate=2530.7kbits/s speed=0.297x elapsed=0:00:00.73    
[libx264 @ 0000029449427380] frame I:1     Avg QP: 8.07  size:   422
[libx264 @ 0000029449427380] frame P:5     Avg QP:17.40  size:  6577
[libx264 @ 0000029449427380] frame B:9     Avg QP:16.17  size:  3727
[libx264 @ 0000029449427380] consecutive B-frames: 13.3%  0.0% 60.0% 26.7%
[libx264 @ 0000029449427380] mb I  I16..4: 100.0%  0.0%  0.0%
[libx264 @ 0000029449427380] mb P  I16..4:  2.3% 22.7%  0.6%  P16..4:  9.6%  0.8%  1.3%  0.0%  0.0%    skip:62.8%
[libx264 @ 0000029449427380] mb B  I16..4:  3.3%  0.3%  0.0%  B16..8:  3.5%  0.6%  0.0%  direct:25.7%  skip:66.6%  L0:74.7% L1: 1.0% BI:24.2%
[libx264 @ 0000029449427380] 8x8 transform intra:44.6% inter:53.0%
[libx264 @ 0000029449427380] coded y,uvDC,uvAC intra: 5.1% 8.0% 2.3% inter: 2.6% 22.5% 0.1%
[libx264 @ 0000029449427380] i16 v,h,dc,p: 91%  4%  4%  1%
[libx264 @ 0000029449427380] i8 v,h,dc,ddl,ddr,vr,hd,vl,hu: 65%  9% 22%  1%  1%  1%  1%  1%  1%
[libx264 @ 0000029449427380] i4 v,h,dc,ddl,ddr,vr,hd,vl,hu: 40% 24% 15%  5%  4%  3%  3%  3%  3%
[libx264 @ 0000029449427380] i8c dc,h,v,p: 91%  5%  4%  0%
[libx264 @ 0000029449427380] Weighted P-Frames: Y:100.0% UV:60.0%
[libx264 @ 0000029449427380] ref P L0: 100.0%  0.0%
[libx264 @ 0000029449427380] ref B L0: 92.5%  7.5%
[libx264 @ 0000029449427380] ref B L1: 96.6%  3.4%
[libx264 @ 0000029449427380] kb/s:2139.14
Exiting normally, received signal 2.
